# xmcd
#
# Track frame offsets: 
#        150
#        23422
#        45184
#        64357
#        84105
#        96758
#        118147
#        137163
#        166491
#        188981
#        201086
#
# Disc length: 3032 seconds
#
# Revision: 0
# Processed by: cddbd v1.5.1PL0 Copyright (c) Steve Scherf et al.
# Submitted via: ExactAudioCopy v0.95a4
#
DISCID=8b0bd60b
DTITLE=Central Ave Ryhthm 'N' Blues Band - Testing One-Two
DYEAR=1900
DGENRE=R&B
TTITLE0=Midnight Believer
TTITLE1=Fat Tuesday
TTITLE2=Stnky
TTITLE3=I'm Thinking
TTITLE4=Girl You Must Be Crazy
TTITLE5=Rainy Night In Georgia
TTITLE6=My Babe
TTITLE7=The Sky Is Crying
TTITLE8=I Don't Want Know Woman Telling Me What To Do
TTITLE9=Tired Of Crying
TTITLE10=Nothing Takes The Place of You
EXTD=
EXTT0=
EXTT1=
EXTT2=
EXTT3=
EXTT4=
EXTT5=
EXTT6=
EXTT7=
EXTT8=
EXTT9=
EXTT10=
PLAYORDER=
